<?xml version="1.0" encoding="utf-8"?>
<!-- Generator: Adobe Illustrator 19.0.0, SVG Export Plug-In . SVG Version: 6.00 Build 0)  -->
<svg version="1.1" id="Layer_1" xmlns="http://www.w3.org/2000/svg" xmlns:xlink="http://www.w3.org/1999/xlink" x="0px" y="0px"
	 viewBox="0 0 500 500" style="enable-background:new 0 0 500 500;" xml:space="preserve">
<style type="text/css">
	.st0{fill:#00305E;}
	.st1{fill:#FFFFFF;}
</style>
<g id="XMLID_1_">
	<rect id="XMLID_3_" x="67.5" y="67.5" class="st0" width="365" height="365"/>
	<path id="XMLID_12_" class="st1" d="M296,221v88h-92v-88h-76v77l74,74h96l74-74v-77H296z M363.3,294.5L294.7,363h-89.2L137,294.7
		V229h58v88h110v-88h58.6L363.3,294.5z"/>
	<path id="XMLID_13_" class="st1" d="M298,128h-96l-74,74v10h84v88h76v-88h84v-10L298,128z M280,204v88h-59v-88h-82.7l67.2-67h89.2
		l67.3,67H280z"/>
	<path id="XMLID_11_" class="st1" d="M304.8,111H195.5L111,195.5v109l84.5,84.5h109.3l84.2-84.5v-109L304.8,111z M380,301.2
		L301.3,380H198.7L120,301.2V198.7l78.7-78.7h102.5l78.7,78.7V301.2z"/>
</g>
</svg>
